<svg xmlns="http://www.w3.org/2000/svg" version="1.1" xmlns:xlink="http://www.w3.org/1999/xlink" xmlns:svgjs="http://svgjs.dev/svgjs" width="1000" height="623" viewBox="0 0 1000 623"><g transform="matrix(1,0,0,1,-0.6060606060606233,117.18070801128692)"><svg viewBox="0 0 396 247" data-background-color="#ffffff" preserveAspectRatio="xMidYMid meet" height="623" width="1000" xmlns="http://www.w3.org/2000/svg" xmlns:xlink="http://www.w3.org/1999/xlink"><g id="tight-bounds" transform="matrix(1,0,0,1,0.2400000000000091,-0.09999999999999432)"><svg viewBox="0 0 395.52 247.2" height="247.2" width="395.52"><g><svg></svg></g><g><svg viewBox="0 0 395.52 247.2" height="247.2" width="395.52"><g transform="matrix(1,0,0,1,75.54432,76.80493598877982)"><svg viewBox="0 0 244.43135999999998 93.59012802244037" height="93.59012802244037" width="244.43135999999998"><g><svg viewBox="0 0 244.43135999999998 93.59012802244037" height="93.59012802244037" width="244.43135999999998"><g><svg viewBox="0 0 244.43135999999998 93.59012802244037" height="93.59012802244037" width="244.43135999999998"><g><svg viewBox="0 0 244.43135999999998 93.59012802244037" height="93.59012802244037" width="244.43135999999998"><g id="textblocktransform"><svg viewBox="0 0 244.43135999999998 93.59012802244037" height="93.59012802244037" width="244.43135999999998" id="textblock"><g><svg viewBox="0 0 244.43135999999998 93.59012802244037" height="93.59012802244037" width="244.43135999999998"><g transform="matrix(1,0,0,1,0,0)"><svg width="244.43135999999998" viewBox="0.6500000357627869 -40.5 106.93999481201172 40.95000076293945" height="93.59012802244037" data-palette-color="#b19dd0"><path d="M14.5 0L7.1 0 7.1-35.05 0.65-35.05 0.65-40.5 20.85-40.5 20.85-35.05 14.5-35.05 14.5 0ZM28.75 0.45L28.75 0.45Q27.05 0.45 25.95-0.43 24.85-1.3 24.35-2.78 23.85-4.25 23.85-5.9L23.85-5.9 23.85-28.9 30.65-28.9 30.65-7.15Q30.65-5.85 31.07-5.13 31.5-4.4 32.65-4.4L32.65-4.4Q33.4-4.4 34.17-4.8 34.95-5.2 35.7-5.75L35.7-5.75 35.7-28.9 42.5-28.9 42.5 0 35.7 0 35.7-2.75Q34.25-1.35 32.5-0.45 30.75 0.45 28.75 0.45ZM56.1 0.35L56.1 0.35Q53.35 0.35 51.77-0.55 50.2-1.45 49.55-3.15 48.9-4.85 48.9-7.2L48.9-7.2 48.9-24.4 46-24.4 46-28.9 48.9-28.9 48.9-37.55 55.75-37.55 55.75-28.9 60.15-28.9 60.15-24.4 55.75-24.4 55.75-7.8Q55.75-6.3 56.4-5.68 57.05-5.05 58.35-5.05L58.35-5.05Q58.9-5.05 59.42-5.1 59.95-5.15 60.45-5.2L60.45-5.2 60.45 0Q59.6 0.1 58.47 0.23 57.35 0.35 56.1 0.35ZM71.34 0L64.54 0 64.54-28.9 71.34-28.9 71.34 0ZM71.34-33.5L64.54-33.5 64.54-39.15 71.34-39.15 71.34-33.5ZM83.29 0L76.74 0 76.74-28.9 83.29-28.9 83.29-26.4Q84.79-28 86.54-28.73 88.29-29.45 90.09-29.45L90.09-29.45Q91.79-29.45 93.07-28.6 94.34-27.75 94.94-25.9L94.94-25.9Q96.59-27.8 98.44-28.63 100.29-29.45 102.24-29.45L102.24-29.45Q103.79-29.45 104.99-28.68 106.19-27.9 106.89-26.38 107.59-24.85 107.59-22.55L107.59-22.55 107.59 0 101.09 0 101.09-21.95Q101.09-23.6 100.54-24.23 99.99-24.85 98.99-24.85L98.99-24.85Q98.19-24.85 97.22-24.4 96.24-23.95 95.44-23.15L95.44-23.15Q95.44-23 95.44-22.88 95.44-22.75 95.44-22.55L95.44-22.55 95.44 0 88.99 0 88.99-21.95Q88.99-23.6 88.42-24.23 87.84-24.85 86.84-24.85L86.84-24.85Q86.04-24.85 85.09-24.4 84.14-23.95 83.29-23.15L83.29-23.15 83.29 0Z" opacity="1" transform="matrix(1,0,0,1,0,0)" fill="#b19dd0" class="wordmark-text-0" data-fill-palette-color="primary" id="text-0"></path></svg></g></svg></g></svg></g></svg></g><g></g></svg></g></svg></g></svg></g><g><path d="M96.81 54.711A122.216 122.216 0 0 1 298.71 54.711L290.27 54.711A113.776 113.776 0 0 0 105.25 54.711L96.81 54.711M96.81 192.489A122.216 122.216 0 0 0 298.71 192.489L290.27 192.489A113.776 113.776 0 0 1 105.25 192.489L96.81 192.489" fill="#b19dd0" stroke="transparent" data-fill-palette-color="tertiary"></path></g></svg></g><defs></defs></svg><rect width="395.52" height="247.2" fill="none" stroke="none" visibility="hidden"></rect></g></svg></g></svg>